<?xml version="1.0" standalone="no"?>
<!DOCTYPE svg PUBLIC "-//W3C//DTD SVG 20010904//EN"
 "http://www.w3.org/TR/2001/REC-SVG-20010904/DTD/svg10.dtd">
<svg version="1.0" xmlns="http://www.w3.org/2000/svg"
 width="512.000000pt" height="512.000000pt" viewBox="0 0 512.000000 512.000000"
 preserveAspectRatio="xMidYMid meet">

<g transform="translate(0.000000,512.000000) scale(0.100000,-0.100000)"
fill="#000000" stroke="none">
<path d="M2006 4600 c-403 -64 -720 -347 -823 -736 -21 -82 -26 -122 -26 -234
-1 -172 22 -271 98 -425 137 -280 389 -478 687 -539 107 -22 290 -21 398 3
355 79 647 362 745 721 26 98 32 316 10 421 -76 377 -366 678 -740 770 -94 23
-265 32 -349 19z m287 -266 c40 -9 115 -36 167 -61 81 -39 107 -59 185 -137
74 -74 99 -107 132 -176 62 -126 77 -193 77 -340 0 -115 -3 -133 -33 -219 -78
-230 -233 -385 -459 -462 -89 -30 -107 -33 -222 -33 -147 0 -214 15 -340 77
-69 33 -102 58 -176 132 -78 78 -98 104 -137 185 -62 129 -81 223 -75 364 8
169 55 292 163 429 94 119 276 224 435 250 63 11 217 6 283 -9z"/>
<path d="M3995 3522 c-61 -38 -60 -31 -65 -336 l-5 -281 -275 -5 c-193 -4
-281 -9 -297 -17 -40 -24 -63 -63 -63 -109 0 -36 6 -51 34 -82 l34 -37 284 -5
283 -5 5 -283 5 -284 37 -34 c31 -28 46 -34 82 -34 46 0 85 23 109 63 8 16 13
104 17 297 l5 275 281 5 c264 5 283 6 304 25 52 47 63 108 30 162 -36 61 -50
63 -350 63 l-270 0 0 273 c0 252 -1 274 -20 304 -36 60 -108 79 -165 45z"/>
<path d="M1291 2244 c-366 -61 -694 -303 -862 -637 -104 -205 -153 -478 -118
-649 43 -206 227 -389 436 -433 101 -22 2675 -22 2776 0 213 45 398 237 437
455 13 67 8 192 -11 298 -88 492 -483 882 -978 966 -81 14 -202 16 -845 15
-594 -1 -768 -4 -835 -15z m1562 -244 c430 -41 779 -367 847 -793 33 -202 -13
-331 -142 -402 l-53 -30 -1350 -3 c-1503 -3 -1411 -7 -1495 65 -84 72 -112
161 -99 315 11 117 32 196 85 306 97 208 248 359 455 456 109 51 191 75 304
85 122 12 1323 13 1448 1z"/>
</g>
</svg>
