<?xml version="1.0" standalone="no"?>
<!DOCTYPE svg PUBLIC "-//W3C//DTD SVG 20010904//EN"
 "http://www.w3.org/TR/2001/REC-SVG-20010904/DTD/svg10.dtd">
<svg version="1.0" xmlns="http://www.w3.org/2000/svg"
 width="512.000000pt" height="512.000000pt" viewBox="0 0 512.000000 512.000000"
 preserveAspectRatio="xMidYMid meet">

<g transform="translate(0.000000,512.000000) scale(0.100000,-0.100000)"
fill="#000000" stroke="none">
<path d="M910 4805 c-306 -66 -533 -295 -595 -600 -14 -72 -15 -242 -13 -1680
4 -1794 -3 -1632 78 -1800 72 -149 196 -273 345 -345 168 -81 10 -75 1835 -75
1826 0 1668 -6 1835 75 151 75 270 194 345 345 81 167 75 9 75 1835 0 1825 6
1667 -75 1835 -72 149 -196 273 -345 345 -168 81 -4 74 -1810 77 -1345 1
-1621 -1 -1675 -12z m3291 -262 c165 -57 290 -183 342 -348 l22 -70 0 -1565 0
-1565 -22 -70 c-53 -168 -181 -295 -348 -348 l-70 -22 -1565 0 -1565 0 -70 22
c-167 53 -295 180 -348 348 l-22 70 0 1565 0 1565 22 70 c62 197 226 337 428
365 33 4 751 7 1595 6 l1535 -1 66 -22z"/>
<path d="M3578 3394 c-15 -8 -303 -308 -639 -667 -337 -358 -631 -672 -655
-697 l-44 -45 -342 342 c-367 365 -370 367 -443 343 -51 -17 -75 -53 -75 -114
l0 -51 408 -407 c407 -407 407 -408 449 -408 23 0 54 5 69 12 14 7 345 356
735 775 666 718 709 766 709 800 0 39 -30 95 -63 118 -27 19 -74 19 -109 -1z"/>
</g>
</svg>
